<svg xmlns="http://www.w3.org/2000/svg" width="91" height="110" viewBox="0 0 91 110">
  <path fill="#F0AB00" fill-rule="evenodd" d="M249.794024,127.467931 C248.821546,128.11926 247.849068,128.662035 246.87659,129.313364 C235.747117,123.125737 211.975428,111.184703 209.922418,110.099154 C207.761356,108.905051 203.871443,107.385283 204.303655,103.694418 C204.951974,98.4837844 213.920384,87.1940792 217.702244,82.5262203 C238.232339,57.3414934 247.416855,49.5255437 253.575884,50.2854277 C260.059072,51.1538666 263.732879,57.8842677 264.165091,89.5822861 C260.491285,88.4967375 256.493319,87.3026341 252.279246,86.2170855 C251.955087,81.6577815 251.090662,74.7102706 250.766503,72.3220637 C250.442343,69.6081923 249.902078,68.6311986 248.821546,68.4140889 C247.632962,68.305534 244.607474,71.1279603 241.906146,73.9503866 C240.717561,75.2530449 237.151808,78.7268003 233.369948,82.6347752 C230.128354,82.4176655 227.967291,83.0689946 226.778707,84.6973175 C225.806229,85.9999758 225.590123,87.7368535 226.238441,89.9079506 L221.267997,94.9014741 C216.945872,99.2436684 212.40764,102.717424 212.191534,104.454302 C211.975428,105.865515 214.13649,107.385283 217.270031,109.230715 C224.725697,113.790019 243.202783,123.885621 249.794024,127.467931 L249.794024,127.467931 Z M278.644211,95.8784678 C271.404651,93.3817061 253.467831,86.6513049 234.558533,84.1545432 C228.075345,83.2861043 225.482069,85.5657563 228.075345,91.8619381 C230.66862,98.0495649 237.58402,108.253722 244.715527,116.069671 C251.847034,123.777066 259.62686,125.839608 262.112082,114.007129 C262.220135,113.57291 262.328188,113.13869 262.328188,112.704471 C262.976507,109.664935 263.408719,106.733954 263.624825,104.128637 C260.491285,102.717424 256.925531,101.089101 253.359778,99.569333 C253.575884,102.283204 253.900043,107.059618 254.008097,110.641928 L254.008097,111.944587 C254.224203,117.806549 252.279246,117.806549 248.929599,115.418342 C245.039687,112.595916 233.153842,96.8554615 231.857204,89.9079506 C231.749151,89.4737312 231.965257,89.4737312 232.289417,89.4737312 C232.39747,89.4737312 232.505523,89.5822861 232.613576,89.5822861 C235.314905,90.6678346 244.175261,94.1415901 253.251725,98.0495649 C256.817478,99.569333 260.491285,101.197656 263.732879,102.608869 C266.974473,104.020082 269.783854,105.431295 271.944917,106.625399 C275.83483,108.687941 277.347573,110.207709 275.726776,111.836032 C267.622791,120.194756 239.096764,131.91868 229.263929,146.573586 L229.155876,146.682141 C229.047823,146.790696 228.93977,147.007806 228.831717,147.224915 C228.831717,147.33347 228.831717,147.33347 228.723663,147.442025 C228.291451,148.310464 227.535079,149.938787 227.318973,151.784219 C226.88676,154.93231 228.507557,157.863291 233.153842,159.16595 C234.342426,159.491614 235.639064,159.708724 237.043755,159.925834 L237.800127,159.925834 C246.55243,160.360053 269.351642,155.36653 276.267042,152.218439 C283.398549,149.070348 281.237486,145.813702 279.184477,144.185379 C277.671733,142.991276 269.675801,138.431972 265.785888,136.36943 C264.705357,137.020759 263.948985,137.563533 262.868454,138.214862 C269.459695,142.231392 272.05297,144.293934 273.565714,145.488038 C274.105979,145.922257 273.78182,146.465031 272.917395,146.573586 L272.161023,146.573586 C265.893941,147.007806 254.11615,147.876244 248.497387,148.093354 C247.632962,148.093354 246.768537,148.201909 246.228271,148.201909 C247.632962,146.899251 249.145706,145.705147 249.902078,145.162373 C261.787922,136.803649 281.561646,124.97117 287.396515,119.869091 C292.150853,116.178226 303.820591,104.779966 278.644211,95.8784678 L278.644211,95.8784678 Z" transform="translate(-204 -50)"/>
</svg>
